<svg width="149" height="19" viewBox="0 0 149 19" fill="none" xmlns="http://www.w3.org/2000/svg">
<path d="M6.32369 0.46875C10.0538 0.46875 11.9188 3.35375 11.9188 6.23875C11.9188 9.12375 10.0538 11.9796 6.32369 11.9796H2.53531V17.7496H0V0.46875H6.32369ZM6.32369 9.53172C8.42187 9.53172 9.47095 7.8998 9.47095 6.26789C9.47095 4.63597 8.42187 2.97491 6.32369 2.97491H2.53531V9.53172H6.32369Z" fill="#212B55"/>
<path d="M40.6529 9.52993C39.6912 12.3275 38.5547 15.2125 37.6804 17.8352H35.932L30.1328 0.496094H32.7264L36.8353 12.9686L39.6912 4.89644H41.6728L44.4995 12.9395C45.84 8.80139 47.3554 4.40104 48.6376 0.496094H51.2603L45.4612 17.8352H43.7127L40.6529 9.52993Z" fill="#212B55"/>
<path d="M54.6984 15.2416H62.7123V17.7478H52.1631V0.496094H62.6831V2.97311H54.6984V7.83973H62.5083V10.375H54.6984V15.2416Z" fill="#212B55"/>
<path d="M67.229 8.97804H70.1432C72.2413 8.97804 73.2904 7.46268 73.2904 5.97647C73.2904 4.49026 72.2413 2.97491 70.1432 2.97491H66.3257V17.7496H63.8486V0.46875H70.1432C73.9024 0.46875 75.7675 3.23718 75.7675 5.97647C75.7675 8.71576 74.2521 10.7265 71.3088 11.2511L76.7583 17.7496H73.5236L67.229 10.1728V8.97804Z" fill="#212B55"/>
<path d="M83.5778 8.62586C80.9259 8.36358 78.4198 8.10131 78.2158 5.24545C78.1194 4.36037 78.3702 3.47243 78.9152 2.76843C79.9643 1.42793 81.8293 0.932526 83.2281 0.903385H83.3446C84.9766 0.903385 86.4919 1.45707 87.337 2.3896C87.7972 2.87155 88.1018 3.48076 88.2113 4.13808L88.2696 4.60434L89.1729 4.42949L89.1147 3.96323C88.5901 1.22394 85.8508 0 83.3738 0C80.8968 0 79.2649 0.815961 78.1866 2.21475C77.5113 3.09492 77.1985 4.2002 77.3124 5.30373C77.5747 8.94641 80.6928 9.23782 83.4321 9.52924C86.1714 9.82065 88.153 9.9955 88.6192 12.2102C88.752 12.7533 88.758 13.3197 88.6367 13.8655C88.5154 14.4112 88.2702 14.9218 87.9199 15.3575C86.9582 16.5523 85.1806 17.2808 83.3155 17.2808C80.9842 17.2808 78.3323 15.9986 78.0992 13.609L78.0409 13.1719L77.1084 13.2885L77.1667 13.7256C77.4581 16.6106 80.5471 18.1842 83.3155 18.1842C85.472 18.1842 87.541 17.31 88.6775 15.8821C89.1066 15.3498 89.4084 14.7266 89.56 14.0599C89.7115 13.3933 89.7087 12.7008 89.5518 12.0354C88.9107 9.1504 86.2005 8.88813 83.5778 8.62586Z" fill="#006AB4"/>
<path d="M88.998 1.13565H94.972V18.0085H95.8754V1.13565H101.849V0.203125H88.998V1.13565Z" fill="#006AB4"/>
<path d="M109.047 10.8106C110.737 10.8106 112.136 10.2569 113.127 9.14954C114.033 8.15585 114.524 6.85179 114.496 5.50686C114.496 2.94242 112.806 0.203125 109.047 0.203125H102.811V18.0085H103.714V1.13565H109.047C112.165 1.13565 113.593 3.40868 113.593 5.536C113.605 6.64392 113.2 7.71581 112.456 8.53756C111.64 9.44095 110.475 9.90721 109.047 9.90721H105.433V10.6649L113.535 18.0085H114.904L106.949 10.8106H109.047Z" fill="#006AB4"/>
<path d="M116.799 9.55962H125.745V8.6271H116.799V1.13776H125.92V0.234375H115.866V17.7484L115.924 18.0106H125.978V17.1072H116.799V9.55962Z" fill="#006AB4"/>
<path d="M136.149 0.203125V0.232268H127.261V17.7462L127.29 18.0085H137.373V17.1051H128.193V9.55752H137.111V8.62499H128.193V1.13565H136.149H137.315H142.123V18.0085H143.026V1.13565H149V0.203125H136.149Z" fill="#006AB4"/>
<path d="M25.2942 8.77003C25.2884 9.54109 25.0545 10.2932 24.6219 10.9315C24.1894 11.5698 23.5775 12.0658 22.8635 12.3569C22.1495 12.648 21.3652 12.7212 20.6097 12.5672C19.8541 12.4133 19.1611 12.0391 18.6179 11.4918C18.0747 10.9446 17.7056 10.2487 17.5573 9.49205C17.409 8.73537 17.488 7.95171 17.7844 7.23987C18.0808 6.52803 18.5813 5.91987 19.2228 5.49207C19.8643 5.06426 20.6181 4.83596 21.3892 4.83594C21.9045 4.83592 22.4147 4.93789 22.8903 5.13595C23.366 5.33401 23.7978 5.62425 24.1608 5.98995C24.5238 6.35565 24.8108 6.78958 25.0053 7.26672C25.1998 7.74385 25.298 8.25477 25.2942 8.77003Z" fill="#006AB4"/>
<path d="M21.6521 13.4647H21.3898C20.7406 13.5158 20.0879 13.4321 19.4726 13.2187C18.8574 13.0054 18.2929 12.6671 17.8147 12.2251C17.3365 11.7831 16.9549 11.2469 16.694 10.6503C16.433 10.0537 16.2983 9.40954 16.2983 8.75835C16.2983 8.10716 16.433 7.46301 16.694 6.8664C16.9549 6.26979 17.3365 5.73362 17.8147 5.2916C18.2929 4.84958 18.8574 4.51128 19.4726 4.29795C20.0879 4.08462 20.7406 4.00089 21.3898 4.05201H21.5355L22.0601 3.44004L21.3898 3.38176C20.6505 3.32729 19.9078 3.42589 19.2083 3.67141C18.5088 3.91692 17.8674 4.30407 17.3243 4.80866C16.7812 5.31325 16.3479 5.92444 16.0517 6.60402C15.7555 7.28361 15.6025 8.01699 15.6025 8.75835C15.6025 9.4997 15.7555 10.2331 16.0517 10.9127C16.3479 11.5923 16.7812 12.2034 17.3243 12.708C17.8674 13.2126 18.5088 13.5998 19.2083 13.8453C19.9078 14.0908 20.6505 14.1894 21.3898 14.1349L22.1766 14.0767C21.9726 13.8727 21.8269 13.6687 21.6521 13.4647Z" fill="#006AB4"/>
<path d="M22.9344 14.774C22.4319 14.9152 21.9118 14.9839 21.3899 14.978C20.5371 15.0364 19.6813 14.9188 18.8758 14.6326C18.0703 14.3464 17.3322 13.8976 16.7075 13.3142C16.0827 12.7307 15.5845 12.025 15.244 11.241C14.9034 10.4569 14.7276 9.61116 14.7276 8.75631C14.7276 7.90147 14.9034 7.05575 15.244 6.27167C15.5845 5.4876 16.0827 4.78193 16.7075 4.19847C17.3322 3.61501 18.0703 3.16624 18.8758 2.88001C19.6813 2.59379 20.5371 2.47622 21.3899 2.53463C21.8618 2.53177 22.332 2.59055 22.7887 2.70948C22.9917 2.51001 23.2165 2.33405 23.4589 2.18493C22.5057 1.86982 21.4952 1.76633 20.4979 1.88166C19.5005 1.997 18.5403 2.3284 17.6841 2.85277C16.8279 3.37714 16.0964 4.08187 15.5404 4.91787C14.9844 5.75387 14.6174 6.70103 14.4649 7.69338C14.3124 8.68572 14.3781 9.69938 14.6574 10.6637C14.9367 11.6281 15.4229 12.52 16.0821 13.2772C16.7413 14.0345 17.5577 14.6389 18.4744 15.0484C19.3911 15.4579 20.386 15.6626 21.3899 15.6483C22.1449 15.6552 22.8949 15.5269 23.6047 15.2694L22.9344 14.774Z" fill="#212B55"/>
<path d="M24.4496 15.7661C23.4041 16.2345 22.2669 16.4626 21.1217 16.4336C19.9765 16.4045 18.8524 16.1192 17.832 15.5984C16.8116 15.0776 15.9209 14.3348 15.2255 13.4244C14.53 12.5141 14.0475 11.4594 13.8134 10.338C13.5794 9.21655 13.5996 8.05692 13.8728 6.94437C14.146 5.83183 14.665 4.79467 15.3919 3.90918C16.1187 3.0237 17.0348 2.31241 18.0728 1.82765C19.1107 1.34289 20.2442 1.09698 21.3897 1.10801C22.381 1.10398 23.3627 1.3023 24.2747 1.69083L25.0907 1.312C23.942 0.73625 22.6746 0.436878 21.3897 0.437754C20.1195 0.427842 18.8639 0.708384 17.7187 1.25794C16.5736 1.80751 15.5692 2.61155 14.7823 3.60864C13.9953 4.60573 13.4467 5.7695 13.1784 7.01103C12.91 8.25257 12.929 9.53901 13.2338 10.7721C13.5386 12.0052 14.1213 13.1523 14.9372 14.1258C15.7532 15.0992 16.7808 15.8733 17.9417 16.3889C19.1026 16.9045 20.3659 17.1479 21.6352 17.1006C22.9046 17.0533 24.1463 16.7164 25.2655 16.1158C24.9863 16.017 24.7137 15.9001 24.4496 15.7661Z" fill="#212B55"/>
<path d="M29.2003 11.8612C29.6297 10.8679 29.8481 9.79611 29.8414 8.71393C29.8486 7.61287 29.6304 6.52199 29.2003 5.50838C28.7817 4.51082 28.1786 3.60123 27.4227 2.82737C27.0912 2.50308 26.7302 2.2104 26.3444 1.95312C25.5898 2.23968 24.8899 2.65368 24.2754 3.17706C24.8759 3.46746 25.4267 3.85104 25.9073 4.31358C26.4679 4.88957 26.9218 5.56052 27.2478 6.29519C27.564 7.06197 27.7226 7.88456 27.7141 8.71393C27.726 9.53417 27.5672 10.3479 27.2478 11.1035C26.9146 11.8342 26.4616 12.504 25.9073 13.0851C25.439 13.5283 24.9089 13.9013 24.3337 14.1925C24.9601 14.707 25.6697 15.1111 26.4318 15.3873C26.7819 15.1402 27.113 14.8675 27.4227 14.5713C28.1851 13.7916 28.7888 12.8712 29.2003 11.8612Z" fill="#212B55"/>
</svg>
